<mxfile host="Electron" modified="2023-11-14T07:46:56.186Z" agent="Mozilla/5.0 (Windows NT 10.0; Win64; x64) AppleWebKit/537.36 (KHTML, like Gecko) draw.io/22.0.2 Chrome/114.0.5735.289 Electron/25.8.4 Safari/537.36" etag="PCFqyOkppXBJB_V_n7IR" version="22.0.2" type="device">
  <diagram name="Page-1" id="1IKSsUQUWhkjJN7TaTGo">
    <mxGraphModel dx="780" dy="504" grid="1" gridSize="10" guides="1" tooltips="1" connect="1" arrows="1" fold="1" page="1" pageScale="1" pageWidth="850" pageHeight="1100" math="0" shadow="0">
      <root>
        <mxCell id="0" />
        <mxCell id="1" parent="0" />
        <mxCell id="YbYkni5E4hA5sm-V1Imy-1" value="Front-end" style="rounded=0;whiteSpace=wrap;html=1;" vertex="1" parent="1">
          <mxGeometry x="240" y="20" width="370" height="20" as="geometry" />
        </mxCell>
        <mxCell id="YbYkni5E4hA5sm-V1Imy-2" value="User" style="shape=umlActor;verticalLabelPosition=bottom;verticalAlign=top;html=1;outlineConnect=0;" vertex="1" parent="1">
          <mxGeometry x="620" y="110" width="30" height="60" as="geometry" />
        </mxCell>
        <mxCell id="YbYkni5E4hA5sm-V1Imy-9" style="edgeStyle=orthogonalEdgeStyle;rounded=0;orthogonalLoop=1;jettySize=auto;html=1;exitX=0.5;exitY=1;exitDx=0;exitDy=0;exitPerimeter=0;entryX=0.5;entryY=0;entryDx=0;entryDy=0;startArrow=classic;startFill=1;" edge="1" parent="1" source="YbYkni5E4hA5sm-V1Imy-3" target="YbYkni5E4hA5sm-V1Imy-6">
          <mxGeometry relative="1" as="geometry" />
        </mxCell>
        <mxCell id="YbYkni5E4hA5sm-V1Imy-3" value="HTML" style="shape=note;whiteSpace=wrap;html=1;backgroundOutline=1;darkOpacity=0.05;" vertex="1" parent="1">
          <mxGeometry x="530" y="50" width="60" height="90" as="geometry" />
        </mxCell>
        <mxCell id="YbYkni5E4hA5sm-V1Imy-4" value="CSS&lt;br&gt;(Style)" style="shape=note;whiteSpace=wrap;html=1;backgroundOutline=1;darkOpacity=0.05;" vertex="1" parent="1">
          <mxGeometry x="395" y="50" width="60" height="90" as="geometry" />
        </mxCell>
        <mxCell id="YbYkni5E4hA5sm-V1Imy-8" style="edgeStyle=orthogonalEdgeStyle;rounded=0;orthogonalLoop=1;jettySize=auto;html=1;entryX=0.5;entryY=0;entryDx=0;entryDy=0;startArrow=classic;startFill=1;" edge="1" parent="1" source="YbYkni5E4hA5sm-V1Imy-5" target="YbYkni5E4hA5sm-V1Imy-6">
          <mxGeometry relative="1" as="geometry" />
        </mxCell>
        <mxCell id="YbYkni5E4hA5sm-V1Imy-5" value="Javascript&lt;br&gt;(Scripts)" style="shape=note;whiteSpace=wrap;html=1;backgroundOutline=1;darkOpacity=0.05;" vertex="1" parent="1">
          <mxGeometry x="260" y="50" width="60" height="90" as="geometry" />
        </mxCell>
        <mxCell id="YbYkni5E4hA5sm-V1Imy-13" style="edgeStyle=orthogonalEdgeStyle;rounded=0;orthogonalLoop=1;jettySize=auto;html=1;exitX=0.5;exitY=1;exitDx=0;exitDy=0;entryX=0.5;entryY=0;entryDx=0;entryDy=0;startArrow=classic;startFill=1;" edge="1" parent="1" source="YbYkni5E4hA5sm-V1Imy-6" target="YbYkni5E4hA5sm-V1Imy-10">
          <mxGeometry relative="1" as="geometry" />
        </mxCell>
        <mxCell id="YbYkni5E4hA5sm-V1Imy-6" value="Back-end" style="rounded=0;whiteSpace=wrap;html=1;" vertex="1" parent="1">
          <mxGeometry x="240" y="210" width="370" height="20" as="geometry" />
        </mxCell>
        <mxCell id="YbYkni5E4hA5sm-V1Imy-10" value="Flask&lt;br&gt;Python" style="rounded=0;whiteSpace=wrap;html=1;" vertex="1" parent="1">
          <mxGeometry x="365" y="270" width="120" height="60" as="geometry" />
        </mxCell>
        <mxCell id="YbYkni5E4hA5sm-V1Imy-12" style="edgeStyle=orthogonalEdgeStyle;rounded=0;orthogonalLoop=1;jettySize=auto;html=1;exitX=0.5;exitY=0;exitDx=0;exitDy=0;exitPerimeter=0;entryX=0.5;entryY=1;entryDx=0;entryDy=0;startArrow=classic;startFill=1;" edge="1" parent="1" source="YbYkni5E4hA5sm-V1Imy-11" target="YbYkni5E4hA5sm-V1Imy-10">
          <mxGeometry relative="1" as="geometry" />
        </mxCell>
        <mxCell id="YbYkni5E4hA5sm-V1Imy-11" value="DB" style="shape=cylinder3;whiteSpace=wrap;html=1;boundedLbl=1;backgroundOutline=1;size=15;" vertex="1" parent="1">
          <mxGeometry x="395" y="370" width="60" height="80" as="geometry" />
        </mxCell>
        <mxCell id="YbYkni5E4hA5sm-V1Imy-17" value="GET Request&lt;br&gt;" style="edgeStyle=orthogonalEdgeStyle;rounded=0;orthogonalLoop=1;jettySize=auto;html=1;exitX=1;exitY=0.5;exitDx=0;exitDy=0;entryX=0;entryY=0.5;entryDx=0;entryDy=0;" edge="1" parent="1" source="YbYkni5E4hA5sm-V1Imy-14" target="YbYkni5E4hA5sm-V1Imy-16">
          <mxGeometry relative="1" as="geometry" />
        </mxCell>
        <mxCell id="YbYkni5E4hA5sm-V1Imy-14" value="CNB&lt;br&gt;BNR" style="rounded=0;whiteSpace=wrap;html=1;" vertex="1" parent="1">
          <mxGeometry x="20" y="270" width="120" height="60" as="geometry" />
        </mxCell>
        <mxCell id="YbYkni5E4hA5sm-V1Imy-16" value="get_data.py&lt;br&gt;Requests lib" style="rounded=0;whiteSpace=wrap;html=1;" vertex="1" parent="1">
          <mxGeometry x="210" y="380" width="120" height="60" as="geometry" />
        </mxCell>
        <mxCell id="YbYkni5E4hA5sm-V1Imy-18" style="edgeStyle=orthogonalEdgeStyle;rounded=0;orthogonalLoop=1;jettySize=auto;html=1;exitX=1;exitY=0.5;exitDx=0;exitDy=0;entryX=0;entryY=0.5;entryDx=0;entryDy=0;entryPerimeter=0;" edge="1" parent="1" source="YbYkni5E4hA5sm-V1Imy-16" target="YbYkni5E4hA5sm-V1Imy-11">
          <mxGeometry relative="1" as="geometry" />
        </mxCell>
        <mxCell id="YbYkni5E4hA5sm-V1Imy-22" value="https://www.cnb.cz/cs/financni_trhy/devizovy_trh/kurzy_devizoveho_trhu/denni_kurz.txt" style="text;html=1;strokeColor=none;fillColor=none;align=center;verticalAlign=middle;whiteSpace=wrap;rounded=0;" vertex="1" parent="1">
          <mxGeometry x="20" y="480" width="500" height="30" as="geometry" />
        </mxCell>
      </root>
    </mxGraphModel>
  </diagram>
</mxfile>
